<svg width="67" height="94" viewBox="0 0 67 94" fill="none" xmlns="http://www.w3.org/2000/svg">
<path d="M33.682 0C15.4489 0 0.615723 14.835 0.615723 33.0703C0.615723 50.7103 30.8461 90.9006 32.1338 92.6047C32.4956 93.0911 33.0753 93.375 33.6822 93.375C34.2891 93.375 34.8688 93.0911 35.2305 92.6047C36.5181 90.9006 66.7487 50.7105 66.7487 33.0703C66.7483 14.835 51.9151 0 33.682 0ZM33.682 50.5781C24.0305 50.5781 16.1763 42.7229 16.1763 33.0703C16.1763 23.4176 24.0305 15.5624 33.682 15.5624C43.3335 15.5624 51.1877 23.4176 51.1877 33.0703C51.1877 42.7229 43.3335 50.5781 33.682 50.5781Z" fill="url(#paint0_linear)"/>
<defs>
<linearGradient id="paint0_linear" x1="-11.7325" y1="-4.90899e-07" x2="83.027" y2="20.3729" gradientUnits="userSpaceOnUse">
<stop stop-color="#4BD8B5"/>
<stop offset="1" stop-color="#49D6DF"/>
</linearGradient>
</defs>
</svg>
