<svg width="245" height="49" viewBox="0 0 245 49" fill="none" xmlns="http://www.w3.org/2000/svg">
<path d="M108.891 15.0273C108.891 17.332 108.371 19.1094 107.332 20.3594C106.301 21.6094 104.844 22.2344 102.961 22.2344C101.062 22.2344 99.5938 21.6055 98.5547 20.3477C97.5156 19.0898 96.9961 17.3164 96.9961 15.0273V11.9102C96.9961 9.60547 97.5117 7.82813 98.543 6.57812C99.582 5.32812 101.047 4.70312 102.938 4.70312C104.828 4.70312 106.293 5.33203 107.332 6.58984C108.371 7.84766 108.891 9.625 108.891 11.9219V15.0273ZM104.941 11.4062C104.941 10.1797 104.781 9.26562 104.461 8.66406C104.141 8.05469 103.633 7.75 102.938 7.75C102.258 7.75 101.762 8.03125 101.449 8.59375C101.145 9.15625 100.98 10.0078 100.957 11.1484V15.5078C100.957 16.7812 101.117 17.7148 101.438 18.3086C101.758 18.8945 102.266 19.1875 102.961 19.1875C103.633 19.1875 104.129 18.9023 104.449 18.332C104.77 17.7539 104.934 16.8516 104.941 15.625V11.4062ZM122.848 22H110.941V19.4219L116.426 13.6562C117.777 12.1172 118.453 10.8945 118.453 9.98828C118.453 9.25391 118.293 8.69531 117.973 8.3125C117.652 7.92969 117.188 7.73828 116.578 7.73828C115.977 7.73828 115.488 7.99609 115.113 8.51172C114.738 9.01953 114.551 9.65625 114.551 10.4219H110.59C110.59 9.375 110.852 8.41016 111.375 7.52734C111.898 6.63672 112.625 5.94141 113.555 5.44141C114.484 4.94141 115.523 4.69141 116.672 4.69141C118.516 4.69141 119.934 5.11719 120.926 5.96875C121.926 6.82031 122.426 8.04297 122.426 9.63672C122.426 10.3086 122.301 10.9648 122.051 11.6055C121.801 12.2383 121.41 12.9062 120.879 13.6094C120.355 14.3047 119.508 15.2383 118.336 16.4102L116.133 18.9531H122.848V22ZM126.258 23.4648H123.457L129.281 4.9375H132.094L126.258 23.4648Z" fill="#333333"/>
<path d="M139.754 17.9326C139.754 19.277 139.451 20.3138 138.845 21.043C138.243 21.7721 137.393 22.1367 136.295 22.1367C135.188 22.1367 134.331 21.7699 133.725 21.0361C133.118 20.3024 132.815 19.2679 132.815 17.9326V16.1143C132.815 14.7699 133.116 13.7331 133.718 13.0039C134.324 12.2747 135.178 11.9102 136.281 11.9102C137.384 11.9102 138.239 12.277 138.845 13.0107C139.451 13.7445 139.754 14.7812 139.754 16.1211V17.9326ZM137.45 15.8203C137.45 15.1048 137.357 14.5716 137.17 14.2207C136.983 13.8652 136.687 13.6875 136.281 13.6875C135.885 13.6875 135.595 13.8516 135.413 14.1797C135.235 14.5078 135.14 15.0046 135.126 15.6699V18.2129C135.126 18.9557 135.219 19.5003 135.406 19.8467C135.593 20.1885 135.889 20.3594 136.295 20.3594C136.687 20.3594 136.976 20.193 137.163 19.8604C137.35 19.5231 137.446 18.9967 137.45 18.2812V15.8203ZM147.663 14.7061C147.663 15.1891 147.542 15.6152 147.301 15.9844C147.064 16.3535 146.736 16.6497 146.316 16.873C146.79 17.1055 147.166 17.4245 147.444 17.8301C147.722 18.2311 147.861 18.7074 147.861 19.2588C147.861 20.1475 147.554 20.8493 146.938 21.3643C146.328 21.8792 145.485 22.1367 144.409 22.1367C143.329 22.1367 142.477 21.8792 141.853 21.3643C141.228 20.8447 140.916 20.1429 140.916 19.2588C140.916 18.7256 141.053 18.2539 141.326 17.8438C141.6 17.4336 141.987 17.11 142.488 16.873C142.064 16.6497 141.732 16.3535 141.49 15.9844C141.249 15.6152 141.128 15.1891 141.128 14.7061C141.128 13.8402 141.422 13.1566 142.01 12.6553C142.598 12.154 143.391 11.9033 144.389 11.9033C145.396 11.9033 146.193 12.154 146.781 12.6553C147.369 13.1566 147.663 13.8402 147.663 14.7061ZM145.551 19.0742C145.551 18.6641 145.444 18.3496 145.229 18.1309C145.02 17.9076 144.742 17.7959 144.396 17.7959C144.049 17.7959 143.769 17.9076 143.555 18.1309C143.34 18.3496 143.233 18.6641 143.233 19.0742C143.233 19.4707 143.34 19.7852 143.555 20.0176C143.773 20.2454 144.058 20.3594 144.409 20.3594C144.751 20.3594 145.027 20.2454 145.236 20.0176C145.446 19.7897 145.551 19.4753 145.551 19.0742ZM144.389 13.6807C144.079 13.6807 143.842 13.7832 143.678 13.9883C143.518 14.1888 143.438 14.4691 143.438 14.8291C143.438 15.1846 143.521 15.4717 143.685 15.6904C143.849 15.9092 144.09 16.0186 144.409 16.0186C144.724 16.0186 144.958 15.9092 145.113 15.6904C145.273 15.4717 145.353 15.1846 145.353 14.8291C145.353 14.4736 145.271 14.1934 145.106 13.9883C144.947 13.7832 144.708 13.6807 144.389 13.6807Z" fill="#828282"/>
<rect y="42" width="245" height="5" fill="#BDBDBD" fill-opacity="0.57"/>
<rect x="30" y="39" width="30" height="10" fill="#333333"/>
</svg>
