<svg width="245" height="49" viewBox="0 0 245 49" fill="none" xmlns="http://www.w3.org/2000/svg">
<path d="M108.891 15.0273C108.891 17.332 108.371 19.1094 107.332 20.3594C106.301 21.6094 104.844 22.2344 102.961 22.2344C101.062 22.2344 99.5938 21.6055 98.5547 20.3477C97.5156 19.0898 96.9961 17.3164 96.9961 15.0273V11.9102C96.9961 9.60547 97.5117 7.82813 98.543 6.57812C99.582 5.32812 101.047 4.70312 102.938 4.70312C104.828 4.70312 106.293 5.33203 107.332 6.58984C108.371 7.84766 108.891 9.625 108.891 11.9219V15.0273ZM104.941 11.4062C104.941 10.1797 104.781 9.26562 104.461 8.66406C104.141 8.05469 103.633 7.75 102.938 7.75C102.258 7.75 101.762 8.03125 101.449 8.59375C101.145 9.15625 100.98 10.0078 100.957 11.1484V15.5078C100.957 16.7812 101.117 17.7148 101.438 18.3086C101.758 18.8945 102.266 19.1875 102.961 19.1875C103.633 19.1875 104.129 18.9023 104.449 18.332C104.77 17.7539 104.934 16.8516 104.941 15.625V11.4062ZM119.695 22H115.734V9.39062L111.844 10.5273V7.52734L119.332 4.9375H119.695V22ZM126.258 23.4648H123.457L129.281 4.9375H132.094L126.258 23.4648Z" fill="#333333"/>
<path d="M139.754 17.9326C139.754 19.277 139.451 20.3138 138.845 21.043C138.243 21.7721 137.393 22.1367 136.295 22.1367C135.188 22.1367 134.331 21.7699 133.725 21.0361C133.118 20.3024 132.815 19.2679 132.815 17.9326V16.1143C132.815 14.7699 133.116 13.7331 133.718 13.0039C134.324 12.2747 135.178 11.9102 136.281 11.9102C137.384 11.9102 138.239 12.277 138.845 13.0107C139.451 13.7445 139.754 14.7812 139.754 16.1211V17.9326ZM137.45 15.8203C137.45 15.1048 137.357 14.5716 137.17 14.2207C136.983 13.8652 136.687 13.6875 136.281 13.6875C135.885 13.6875 135.595 13.8516 135.413 14.1797C135.235 14.5078 135.14 15.0046 135.126 15.6699V18.2129C135.126 18.9557 135.219 19.5003 135.406 19.8467C135.593 20.1885 135.889 20.3594 136.295 20.3594C136.687 20.3594 136.976 20.193 137.163 19.8604C137.35 19.5231 137.446 18.9967 137.45 18.2812V15.8203ZM147.034 18.1104H148.046V19.8877H147.034V22H144.73V19.8877H140.882L140.745 18.4795L144.73 12.0674V12.0469H147.034V18.1104ZM142.939 18.1104H144.73V15.0479L144.587 15.2803L142.939 18.1104Z" fill="#828282"/>
<rect y="42" width="245" height="5" fill="#BDBDBD" fill-opacity="0.57"/>
<rect y="39" width="80" height="10" fill="#333333"/>
</svg>
